P1
# This is an example bitmap of the letter "J"
# credit for https://en.wikipedia.org/wiki/Netpbm#PBM_example
6 10
0 0 0 0 1 0
0 0 0 0 1 0 # comment
0 0 0 0 1 0
# should not crash
0 0 0 0 1 0
0 0 0 0 1 0
0 0 0 0 1 0 # another one
1 0 0 0 1 0
0 1 1 1 0 0
0 0 0 0 0 0
0 0 0 0 0 0